#!OML:ASF F:\VICON\USERDATA\INSTALL\rory3\rory3.ASF
:FULLY-SPECIFIED
:DEGREES
1438
root 5.50611 17.4791 1.16925 19.3302 2.03803 0.905818
lowerback -9.64024 -1.51078 8.88227
upperback -14.0111 -2.2651 0.99924
thorax -10.1093 -1.98114 -3.85861
lowerneck -4.02147 19.5347 10.9834
upperneck 9.3307 25.4204 0.379643
head 4.72754 12.9065 0.169036
rclavicle -6.16232e-015 -3.10104e-014
rhumerus -9.15341 -29.638 29.6466
rradius 112.664
rwrist -63.1369
rhand -3.63298 -41.8393
rfingers 7.12502
rthumb 22.1064 -70.5956
lclavicle -6.16232e-015 -3.10104e-014
lhumerus 23.8607 26.7171 -13.3713
lradius 32.7226
lwrist 56.5883
lhand -20.2 -13.1791
lfingers 7.12502
lthumb 6.14676 16.7117
rfemur -12.5197 10.5499 -8.92782
rtibia 11.008
rfoot -12.8779 -22.9428
rtoes 37.4943
lfemur -19.0601 2.95787 -30.5883
ltibia 16.1551
lfoot -15.506 2.05028
ltoes 9.82673
1439
root 5.50404 17.4797 1.16906 19.31 1.97343 0.863694
lowerback -9.61028 -1.48966 8.88761
upperback -13.961 -2.23662 1.00143
thorax -10.0627 -1.96403 -3.86022
lowerneck -4.26813 19.5157 10.9898
upperneck 9.41646 25.3698 0.331263
head 4.79754 12.877 0.182791
rclavicle 5.96354e-015 8.74653e-015
rhumerus -9.27468 -29.6623 29.6761
rradius 112.724
rwrist -63.1111
rhand -2.76273 -41.955
rfingers 7.12502
rthumb 22.9417 -70.61
lclavicle 5.96354e-015 8.74653e-015
lhumerus 23.7178 26.5461 -13.6198
lradius 32.7923
lwrist 56.8159
lhand -20.4234 -13.1206
lfingers 7.12502
lthumb 5.93104 16.7764
rfemur -12.5973 10.5835 -8.89117
rtibia 11.0945
rfoot -12.8638 -22.9115
rtoes 37.6882
lfemur -19.0708 2.89064 -30.5338
ltibia 16.1581
lfoot -15.466 2.20981
ltoes 9.4265
1440
root 5.50197 17.4787 1.16811 19.312 1.95211 0.894098
lowerback -9.61756 -1.50631 8.81802
upperback -13.9303 -2.25833 1.01673
thorax -10.0179 -1.96432 -3.80673
lowerneck -4.36238 19.5662 10.8478
upperneck 9.39366 25.4172 0.501406
head 4.76709 12.9033 0.250931
rclavicle 3.47873e-014 -5.56597e-015
rhumerus -9.26913 -29.7699 29.6368
rradius 112.732
rwrist -63.1475
rhand -2.22697 -41.9573
rfingers 7.12502
rthumb 23.4557 -70.5476
lclavicle 3.47873e-014 -5.56597e-015
lhumerus 23.7218 26.7197 -13.5683
lradius 32.7289
lwrist 56.6271
lhand -20.3822 -13.1843
lfingers 7.12502
lthumb 5.97083 16.7116
rfemur -12.6187 10.6021 -8.92942
rtibia 11.1042
rfoot -12.9053 -22.9361
rtoes 37.8643
lfemur -19.0624 2.75288 -30.5314
ltibia 16.1707
lfoot -15.4571 2.30825
ltoes 9.59296
1441
root 5.5018 17.4797 1.16819 19.3721 2.01346 0.886926
lowerback -9.62763 -1.53056 8.8196
upperback -13.9864 -2.28681 1.04784
thorax -10.0815 -1.9806 -3.77173
lowerneck -4.23263 19.5798 10.7924
upperneck 9.35317 25.4417 0.623086
head 4.71262 12.9212 0.272518
rclavicle 1.35174e-014 -1.19271e-014
rhumerus -9.18144 -29.79 29.5379
rradius 112.712
rwrist -63.1616
rhand -2.32275 -41.9678
rfingers 7.12502
rthumb 23.3638 -70.5698
lclavicle 1.35174e-014 -1.19271e-014
lhumerus 23.6108 26.536 -13.7039
lradius 32.7933
lwrist 56.8694
lhand -20.395 -13.2371
lfingers 7.12502
lthumb 5.9585 16.6591
rfemur -12.6418 10.5961 -8.91536
rtibia 11.0912
rfoot -13.043 -22.915
rtoes 37.9702
lfemur -19.1204 2.71226 -30.5083
ltibia 16.1793
lfoot -15.4877 2.26413
ltoes 9.84601
1442
root 5.50026 17.4813 1.166 19.4099 2.00706 0.828583
lowerback -9.57879 -1.50854 8.84865
upperback -14.0177 -2.25056 1.0598
thorax -10.1436 -1.9677 -3.77176
lowerneck -3.8871 19.542 10.8965
upperneck 9.01893 25.4414 0.427603
head 4.59209 12.9134 0.155334
rclavicle -3.37934e-015 -1.03368e-014
rhumerus -9.25666 -29.7819 29.5325
rradius 112.752
rwrist -63.0873
rhand -2.50992 -41.9984
rfingers 7.12502
rthumb 23.1842 -70.6231
lclavicle -3.37934e-015 -1.03368e-014
lhumerus 23.6457 26.4907 -13.6916
lradius 32.8406
lwrist 56.9409
lhand -20.4545 -13.0903
lfingers 7.12502
lthumb 5.90105 16.8075
rfemur -12.6839 10.6902 -8.88109
rtibia 11.0053
rfoot -13.2006 -22.9676
rtoes 38.0386
lfemur -19.1989 2.76962 -30.4609
ltibia 16.1903
lfoot -15.4687 2.27726
ltoes 9.61501
1443
root 5.49962 17.4803 1.16821 19.2986 1.87334 0.774204
lowerback -9.47836 -1.44779 8.87153
upperback -13.9653 -2.16319 1.04551
thorax -10.129 -1.92507 -3.7988
lowerneck -3.51319 19.5222 10.9648
upperneck 8.55941 25.4713 0.213483
head 4.42724 12.9169 0.028102
rclavicle 5.1684e-015 1.43125e-014
rhumerus -9.41053 -29.7213 29.6442
rradius 112.873
rwrist -63.047
rhand -2.61647 -42.0613
rfingers 7.12502
rthumb 23.082 -70.6988
lclavicle 5.1684e-015 1.43125e-014
lhumerus 23.7911 26.6735 -13.5278
lradius 32.7974
lwrist 56.7151
lhand -20.2078 -12.9316
lfingers 7.12502
lthumb 6.13917 16.9594
rfemur -12.5539 10.8668 -8.86647
rtibia 10.7972
rfoot -14.4918 -22.3519
rtoes 40.2162
lfemur -19.135 2.86897 -30.432
ltibia 16.255
lfoot -15.449 2.39292
ltoes 9.34791
1444
root 5.50351 17.4785 1.17672 19.1083 1.7571 0.648083
lowerback -9.41965 -1.39617 9.05481
upperback -13.8715 -2.09831 1.05007
thorax -10.0575 -1.90516 -3.89667
lowerneck -3.43626 19.5352 10.9959
upperneck 8.4696 25.4997 0.162554
head 4.3988 12.9286 0.00118055
rclavicle 2.82274e-014 2.22639e-014
rhumerus -9.40803 -29.6371 29.6056
rradius 112.952
rwrist -62.9742
rhand -3.07082 -42.0749
rfingers 7.12502
rthumb 22.646 -70.7663
lclavicle 2.82274e-014 2.22639e-014
lhumerus 23.8301 26.8294 -13.4552
lradius 32.7538
lwrist 56.5102
lhand -20.0699 -12.9425
lfingers 7.12502
lthumb 6.27229 16.9446
rfemur -12.2597 10.9877 -8.73116
rtibia 10.5523
rfoot -15.2623 -21.8374
rtoes 41.7496
lfemur -18.9649 2.93063 -30.3118
ltibia 16.362
lfoot -15.533 2.53091
ltoes 9.38765
1445
root 5.50517 17.479 1.17831 19.0191 1.76773 0.546349
lowerback -9.39349 -1.39844 9.21115
upperback -13.7807 -2.10678 1.07241
thorax -9.97842 -1.91743 -3.96095
lowerneck -3.73178 19.5814 10.944
upperneck 8.68359 25.5217 0.25684
head 4.49374 12.9419 0.0767547
rclavicle -4.01545e-014 1.35174e-014
rhumerus -9.40691 -29.7245 29.5479
rradius 112.94
rwrist -62.9185
rhand -3.34856 -41.9643
rfingers 7.12502
rthumb 22.3794 -70.688
lclavicle -4.01545e-014 1.35174e-014
lhumerus 23.8937 27.1923 -13.2967
lradius 32.6658
lwrist 56.1612
lhand -19.9365 -12.9175
lfingers 7.12502
lthumb 6.40114 16.9657
rfemur -12.0641 11.0353 -8.59335
rtibia 10.3794
rfoot -15.6843 -21.5817
rtoes 42.5887
lfemur -18.8934 2.9141 -30.1828
ltibia 16.4609
lfoot -15.6286 2.56165
ltoes 9.55885
1446
root 5.50374 17.4819 1.16934 19.1133 1.95319 0.545848
lowerback -9.34343 -1.44679 9.24016
upperback -13.7971 -2.16465 1.08193
thorax -10.0379 -1.95088 -3.96356
lowerneck -4.05598 19.6431 10.8033
upperneck 8.93412 25.5541 0.488123
head 4.57628 12.9648 0.200966
rclavicle 1.90833e-014 2.22639e-014
rhumerus -9.4663 -29.8127 29.5993
rradius 112.894
rwrist -62.9368
rhand -3.48947 -41.9074
rfingers 7.12502
rthumb 22.2441 -70.6473
lclavicle 1.90833e-014 2.22639e-014
lhumerus 24.0168 27.4984 -13.1101
lradius 32.5772
lwrist 55.8744
lhand -19.423 -12.7541
lfingers 7.12502
lthumb 6.89687 17.1135
rfemur -12.0771 10.9197 -8.5412
rtibia 10.3604
rfoot -15.5584 -21.7652
rtoes 42.3172
lfemur -19.0479 2.91908 -30.1609
ltibia 16.5215
lfoot -15.6424 2.34368
ltoes 9.48918
1447
root 5.4992 17.4845 1.15889 19.3162 2.1691 0.576063
lowerback -9.3452 -1.49971 9.18914
upperback -13.9003 -2.22716 1.09012
thorax -10.1644 -1.9842 -3.92189
lowerneck -4.03901 19.6625 10.7477
upperneck 8.89938 25.5786 0.558563
head 4.54759 12.9785 0.221536
rclavicle 4.13472e-014 2.3059e-014
rhumerus -9.5025 -29.7705 29.6157
rradius 112.882
rwrist -62.919
rhand -3.91823 -42.016
rfingers 7.12502
rthumb 21.8325 -70.8044
lclavicle 4.13472e-014 2.3059e-014
lhumerus 24.1104 27.5179 -13.0254
lradius 32.5596
lwrist 55.8318
lhand -19.1606 -12.5092
lfingers 7.12502
lthumb 7.15017 17.35
rfemur -12.2782 10.7709 -8.53312
rtibia 10.5051
rfoot -15.639 -21.7581
rtoes 42.2152
lfemur -19.3262 2.81383 -30.1536
ltibia 16.5335
lfoot -15.5828 2.18445
ltoes 9.44417
1448
root 5.49342 17.4843 1.15442 19.3962 2.16995 0.651398
lowerback -9.28821 -1.51984 9.02578
upperback -13.9763 -2.23921 1.09166
thorax -10.2747 -1.98006 -3.82495
lowerneck -3.89581 19.651 10.7692
upperneck 8.78035 25.5846 0.494984
head 4.49932 12.979 0.181096
rclavicle 3.1408e-014 -1.51076e-014
rhumerus -9.45735 -29.7278 29.564
rradius 112.857
rwrist -62.9031
rhand -4.32734 -42.2057
rfingers 7.12502
rthumb 21.4396 -71.0393
lclavicle 3.1408e-014 -1.51076e-014
lhumerus 24.0563 27.2919 -13.1211
lradius 32.6263
lwrist 56.0526
lhand -19.6587 -12.5075
lfingers 7.12502
lthumb 6.6693 17.3674
rfemur -12.4717 10.7156 -8.62029
rtibia 10.703
rfoot -15.3229 -21.8725
rtoes 41.6701
lfemur -19.4537 2.63915 -30.193
ltibia 16.5239
lfoot -15.4655 2.30594
ltoes 9.50497
1449
root 5.49194 17.4828 1.15387 19.3704 2.11132 0.743276
lowerback -9.16199 -1.52689 8.88698
upperback -14.0309 -2.22934 1.08394
thorax -10.3994 -1.96764 -3.75001
lowerneck -3.82329 19.6597 10.7734
upperneck 8.82753 25.6013 0.540902
head 4.49833 12.9914 0.1895
rclavicle -2.98177e-014 2.70347e-014
rhumerus -9.33836 -29.6599 29.5301
rradius 112.811
rwrist -62.9183
rhand -4.29813 -42.2683
rfingers 7.12502
rthumb 21.4676 -71.0987
lclavicle -2.98177e-014 2.70347e-014
lhumerus 23.9723 27.0921 -13.2025
lradius 32.6812
lwrist 56.2614
lhand -20.0201 -12.5869
lfingers 7.12502
lthumb 6.32046 17.2988
rfemur -12.5328 10.652 -8.72966
rtibia 10.8582
rfoot -14.8427 -21.9874
rtoes 41.0272
lfemur -19.45 2.60936 -30.2959
ltibia 16.5079
lfoot -15.3536 2.39831
ltoes 9.14754
